<svg preserveAspectRatio="none" width="100%" height="100%" overflow="visible" style="display: block;" viewBox="0 0 402.772 127.803" fill="none" xmlns="http://www.w3.org/2000/svg">
<g id="logo" filter="url(#filter0_i_0_4)">
<path d="M1.09675 90.1835V45.9228H9.72645V90.1835H1.09675ZM5.45489 39.0936C3.95407 39.0936 2.66491 38.5941 1.5874 37.5951C0.529134 36.577 0 35.3667 0 33.9644C0 32.5428 0.529134 31.3326 1.5874 30.3336C2.66491 29.3155 3.95407 28.8064 5.45489 28.8064C6.95571 28.8064 8.23525 29.3155 9.29352 30.3336C10.371 31.3326 10.9098 32.5428 10.9098 33.9644C10.9098 35.3667 10.371 36.577 9.29352 37.5951C8.23525 38.5941 6.95571 39.0936 5.45489 39.0936Z" fill="var(--fill-0, white)"/>
<path d="M21.3361 90.1835V45.9228H29.6195V53.1267H30.1679C31.0914 50.687 32.6019 48.7852 34.6992 47.4213C36.7965 46.0381 39.3074 45.3465 42.2321 45.3465C45.1953 45.3465 47.6774 46.0381 49.6785 47.4213C51.6988 48.8044 53.19 50.7062 54.1521 53.1267H54.6139C55.6721 50.7639 57.3557 48.8812 59.6647 47.4789C61.9736 46.0573 64.7251 45.3465 67.9192 45.3465C71.9406 45.3465 75.2212 46.6048 77.7611 49.1214C80.3201 51.6379 81.5997 55.432 81.5997 60.5035V90.1835H72.97V61.3103C72.97 58.3135 72.1522 56.1428 70.5167 54.798C68.8812 53.4533 66.9282 52.7809 64.6578 52.7809C61.8486 52.7809 59.6647 53.6454 58.1061 55.3743C56.5476 57.0841 55.7683 59.2837 55.7683 61.9731V90.1835H47.1675V60.7628C47.1675 58.3616 46.4171 56.4309 44.9163 54.9709C43.4155 53.5109 41.4625 52.7809 39.0573 52.7809C37.4218 52.7809 35.9114 53.2132 34.526 54.0776C33.1599 54.9229 32.0535 56.1043 31.2069 57.622C30.3795 59.1396 29.9658 60.8973 29.9658 62.8952V90.1835H21.3361Z" fill="var(--fill-0, white)"/>
<path d="M106.067 91.1633C103.258 91.1633 100.718 90.6446 98.4478 89.6072C96.1773 88.5506 94.3783 87.0234 93.0506 85.0255C91.7422 83.0277 91.088 80.5783 91.088 77.6776C91.088 75.1802 91.5691 73.1247 92.5311 71.511C93.4932 69.8974 94.792 68.6199 96.4275 67.6786C98.063 66.7373 99.8909 66.0265 101.911 65.5462C103.932 65.066 105.99 64.701 108.088 64.4512C110.743 64.1439 112.898 63.8941 114.553 63.702C116.207 63.4907 117.41 63.1545 118.16 62.6935C118.911 62.2324 119.286 61.4832 119.286 60.4459V60.2442C119.286 57.7276 118.574 55.7778 117.15 54.3946C115.746 53.0115 113.648 52.3199 110.858 52.3199C107.953 52.3199 105.663 52.9634 103.989 54.2505C102.335 55.5184 101.19 56.9304 100.555 58.4864L92.4445 56.6422C93.4066 53.9528 94.8112 51.782 96.6584 50.1299C98.5248 48.4586 100.67 47.2484 103.095 46.4991C105.519 45.7307 108.068 45.3465 110.743 45.3465C112.513 45.3465 114.389 45.5578 116.371 45.9805C118.372 46.3839 120.239 47.1331 121.97 48.2281C123.721 49.3231 125.155 50.8887 126.271 52.925C127.387 54.9421 127.945 57.5643 127.945 60.7917V90.1835H119.517V84.1323H119.171C118.613 85.2465 117.776 86.3415 116.66 87.4172C115.544 88.493 114.11 89.3863 112.359 90.0971C110.608 90.8079 108.511 91.1633 106.067 91.1633ZM107.943 84.2475C110.329 84.2475 112.369 83.7769 114.062 82.8356C115.775 81.8943 117.073 80.6648 117.958 79.1472C118.863 77.6103 119.315 75.9679 119.315 74.2197V68.5142C119.007 68.8216 118.411 69.1098 117.525 69.3787C116.66 69.6284 115.669 69.8494 114.553 70.0415C113.437 70.2143 112.35 70.3776 111.291 70.5313C110.233 70.6658 109.348 70.7811 108.636 70.8771C106.962 71.0884 105.432 71.4438 104.047 71.9433C102.681 72.4428 101.584 73.1631 100.757 74.1044C99.9486 75.0265 99.5446 76.256 99.5446 77.7928C99.5446 79.9252 100.333 81.5389 101.911 82.6339C103.489 83.7096 105.5 84.2475 107.943 84.2475Z" fill="var(--fill-0, white)"/>
<path d="M158.026 107.703C154.505 107.703 151.474 107.242 148.934 106.32C146.414 105.398 144.355 104.178 142.758 102.661C141.161 101.143 139.968 99.4813 139.179 97.6756L146.597 94.6211C147.116 95.4664 147.809 96.3597 148.675 97.301C149.56 98.2615 150.753 99.0779 152.254 99.7503C153.774 100.423 155.727 100.759 158.112 100.759C161.383 100.759 164.087 99.9616 166.223 98.3671C168.358 96.7919 169.426 94.2753 169.426 90.8175V82.1152H168.878C168.358 83.0565 167.608 84.1034 166.627 85.2561C165.665 86.4087 164.337 87.4076 162.644 88.2529C160.951 89.0981 158.747 89.5208 156.034 89.5208C152.533 89.5208 149.377 88.7043 146.568 87.0714C143.778 85.4194 141.565 82.9892 139.93 79.7811C138.313 76.5538 137.505 72.5868 137.505 67.8803C137.505 63.1738 138.304 59.1396 139.901 55.7778C141.517 52.4159 143.73 49.8418 146.539 48.0552C149.348 46.2494 152.533 45.3465 156.092 45.3465C158.844 45.3465 161.066 45.8076 162.759 46.7297C164.452 47.6326 165.77 48.6891 166.713 49.8994C167.675 51.1096 168.416 52.1758 168.936 53.0979H169.571V45.9228H178.027V91.1633C178.027 94.9669 177.142 98.0886 175.372 100.528C173.602 102.968 171.206 104.774 168.185 105.946C165.184 107.117 161.797 107.703 158.026 107.703ZM157.939 82.3745C160.421 82.3745 162.519 81.7982 164.231 80.6456C165.963 79.4737 167.271 77.8024 168.156 75.6317C169.061 73.4417 169.513 70.8195 169.513 67.765C169.513 64.7874 169.07 62.1652 168.185 59.8984C167.3 57.6316 166.001 55.8642 164.289 54.5963C162.576 53.3092 160.46 52.6657 157.939 52.6657C155.342 52.6657 153.177 53.338 151.445 54.6828C149.714 56.0083 148.405 57.8141 147.52 60.1001C146.654 62.3861 146.221 64.9411 146.221 67.765C146.221 70.6658 146.664 73.2112 147.549 75.4011C148.434 77.5911 149.743 79.3009 151.474 80.5303C153.225 81.7598 155.38 82.3745 157.939 82.3745Z" fill="var(--fill-0, white)"/>
<path d="M189.601 90.1835V45.9228H198.23V90.1835H189.601ZM193.959 39.0936C192.458 39.0936 191.169 38.5941 190.091 37.5951C189.033 36.577 188.504 35.3667 188.504 33.9644C188.504 32.5428 189.033 31.3326 190.091 30.3336C191.169 29.3155 192.458 28.8064 193.959 28.8064C195.46 28.8064 196.739 29.3155 197.798 30.3336C198.875 31.3326 199.414 32.5428 199.414 33.9644C199.414 35.3667 198.875 36.577 197.798 37.5951C196.739 38.5941 195.46 39.0936 193.959 39.0936Z" fill="var(--fill-0, white)"/>
<path d="M217.439 41.4649C220.799 37.2454 224.564 33.134 228.736 29.1309C232.963 25.0737 237.541 21.341 242.472 17.933C240.738 16.9592 238.842 15.9855 236.783 15.0117C234.778 14.038 232.584 13.1725 230.199 12.4151C227.87 11.6578 225.35 11.0357 222.641 10.5488C219.986 10.0619 217.114 9.81849 214.026 9.81849C208.824 9.81849 203.731 10.8463 198.746 12.902C193.761 14.9036 189.318 17.7166 185.417 21.341C181.516 24.9114 178.373 29.158 175.989 34.0807C173.605 39.0035 172.413 44.332 172.413 50.0662C172.413 53.5284 172.846 56.8824 173.713 60.1282C174.634 63.3739 175.881 66.5927 177.452 69.7844L176.802 70.1089C174.689 66.9173 172.955 63.4821 171.6 59.8036C170.246 56.0709 169.568 52.176 169.568 48.1188C169.568 42.3845 170.733 36.9478 173.063 31.8087C175.447 26.6695 178.617 22.1795 182.572 18.3387C186.582 14.4978 191.215 11.4684 196.47 9.25048C201.726 6.97843 207.253 5.8424 213.05 5.8424C216.572 5.8424 219.823 6.19403 222.803 6.89729C225.838 7.54645 228.628 8.41199 231.175 9.49391C233.721 10.5217 236.078 11.6848 238.246 12.9831C240.413 14.2814 242.418 15.5257 244.26 16.7158C247.944 14.2274 251.764 11.9553 255.72 9.89964C259.675 7.84398 263.739 6.08584 267.911 4.62524C272.083 3.16464 276.337 2.02861 280.671 1.21717C285.006 0.405723 289.422 0 293.919 0C296.466 0 299.121 0.216383 301.884 0.649149C304.702 1.08192 307.275 1.89337 309.605 3.08349C311.989 4.27361 313.94 5.8965 315.457 7.95217C316.974 9.95373 317.733 12.5233 317.733 15.6609C317.733 18.8526 316.92 21.7197 315.294 24.2622C313.723 26.7507 311.61 28.8875 308.955 30.6727C306.354 32.4578 303.347 33.8373 299.933 34.811C296.574 35.7307 293.106 36.1905 289.53 36.1905C284.925 36.1905 280.807 35.8389 277.176 35.1356C273.546 34.3783 270.187 33.4045 267.098 32.2144C264.064 30.9702 261.192 29.5637 258.483 27.9949C255.828 26.372 253.2 24.7221 250.599 23.0451L246.454 20.3673C241.849 23.9918 237.568 27.9137 233.613 32.1333C229.712 36.3528 226.217 40.7075 223.129 45.1975C218.902 51.3104 215.57 57.3692 213.132 63.3739C210.748 69.3786 209.528 74.8694 209.474 79.8463C209.474 84.2822 210.504 88.069 212.563 91.2065C214.676 94.3441 218.035 96.4809 222.641 97.617C222.966 93.722 223.752 90.0705 224.998 86.6624C226.244 83.2544 227.951 79.7111 230.118 76.0325C232.448 72.0294 235.266 68.2697 238.571 64.7534C241.876 61.2371 245.533 58.1807 249.543 55.5841C253.607 52.9333 257.968 50.8506 262.628 49.3359C267.288 47.8212 272.11 47.0639 277.095 47.0639C278.558 47.0639 279.967 47.2262 281.321 47.5507C282.676 47.8753 283.868 48.4163 284.898 49.1736C285.927 49.8769 286.74 50.8236 287.336 52.0137C287.932 53.2038 288.23 54.6644 288.23 56.3955C288.23 58.9921 287.715 61.5888 286.686 64.1854C285.656 66.782 284.383 69.2164 282.866 71.4884C281.782 73.1654 280.482 74.8965 278.964 76.6817C277.501 78.4668 275.849 80.225 274.007 81.9561C272.219 83.633 270.268 85.283 268.155 86.9059C266.096 88.4747 263.929 89.9082 261.653 91.2065C257.427 93.6409 252.713 95.6965 247.511 97.3735C242.364 99.1046 236.864 99.9702 231.012 99.9702H227.761C227.653 100.565 227.544 101.268 227.436 102.08C227.382 102.945 227.355 104.081 227.355 105.488C227.355 107.219 227.463 108.896 227.68 110.519C227.897 112.142 228.303 113.9 228.899 115.793C229.549 118.011 230.335 119.986 231.256 121.717C232.231 123.448 233.45 125.287 234.913 127.235L234.344 127.803C232.34 126.126 230.687 124.449 229.387 122.772C228.086 121.149 226.894 119.201 225.811 116.929C224.727 114.711 223.941 112.575 223.454 110.519C223.02 108.517 222.722 106.272 222.56 103.784C222.505 103.459 222.478 103.054 222.478 102.567C222.478 102.134 222.478 101.755 222.478 101.431V99.4833C218.794 98.9423 215.624 98.0497 212.969 96.8055C210.368 95.5613 208.201 93.9925 206.467 92.0991C204.787 90.2599 203.514 88.1501 202.647 85.7699C201.834 83.3896 201.428 80.82 201.428 78.0611C201.428 75.3563 201.78 72.5162 202.485 69.5409C203.243 66.5656 204.3 63.5362 205.654 60.4527C207.063 57.3151 208.743 54.1505 210.693 50.9588C212.698 47.7671 214.947 44.6025 217.439 41.4649ZM289.53 34.6487C293.052 34.6487 296.411 34.1889 299.608 33.2693C302.859 32.2956 305.704 30.9702 308.142 29.2932C310.58 27.5621 312.531 25.5335 313.994 23.2074C315.457 20.8812 316.188 18.3387 316.188 15.5798C316.188 12.8749 315.484 10.6299 314.075 8.84476C312.721 7.00548 310.96 5.54488 308.792 4.46295C306.625 3.38102 304.214 2.62367 301.559 2.1909C298.904 1.75813 296.33 1.54174 293.838 1.54174C289.611 1.54174 285.439 2.00156 281.321 2.9212C277.258 3.78674 273.302 5.00391 269.455 6.57271C265.608 8.14151 261.87 10.0078 258.239 12.1717C254.663 14.3355 251.223 16.6887 247.917 19.2313L248.649 19.7181C251.412 21.6115 254.176 23.4508 256.939 25.236C259.756 27.0212 262.791 28.617 266.042 30.0235C269.293 31.3759 272.815 32.4849 276.607 33.3504C280.454 34.216 284.762 34.6487 289.53 34.6487ZM235.401 79.1971C233.505 82.4429 231.933 85.6076 230.687 88.6911C229.495 91.7205 228.601 94.9662 228.005 98.4284C228.493 98.4825 228.98 98.4825 229.468 98.4284C229.956 98.4284 230.443 98.4284 230.931 98.4284C236.837 98.4284 242.282 97.5899 247.267 95.9129C252.252 94.29 256.803 92.3155 260.921 89.9894C265.527 87.3927 269.564 84.3904 273.031 80.9823C276.553 77.5202 279.425 74.085 281.647 70.677C282.893 68.6754 284.031 66.4304 285.06 63.942C286.144 61.4535 286.686 58.9651 286.686 56.4766C286.686 54.1505 286.008 52.3112 284.654 50.9588C283.299 49.5523 281.376 48.8491 278.883 48.8491C274.657 48.8491 270.431 49.7687 266.204 51.608C261.978 53.3932 257.941 55.7463 254.094 58.6676C250.247 61.5347 246.698 64.7805 243.447 68.4049C240.25 72.0294 237.568 75.6268 235.401 79.1971Z" fill="var(--fill-0, white)"/>
<path d="M329.062 77.412C330.146 76.1677 331.257 74.8424 332.395 73.4359C333.587 72.0294 334.724 70.6499 335.808 69.2975L336.865 70.5147C335.781 71.8671 334.67 73.2736 333.532 74.7342C332.449 76.1407 331.365 77.3849 330.281 78.4668C328.873 80.0356 327.437 81.5233 325.974 82.9298C324.565 84.2822 323.156 85.4723 321.747 86.5002C320.339 87.528 318.957 88.3394 317.602 88.9345C316.248 89.5296 314.975 89.8271 313.783 89.8271C311.615 89.8271 310.125 89.3673 309.312 88.4476C308.5 87.528 308.093 86.3379 308.093 84.8773C308.093 83.7412 308.337 82.47 308.825 81.0635C309.312 79.6029 309.908 78.1423 310.613 76.6817C309.041 78.4127 307.497 80.0627 305.98 81.6315C304.463 83.1462 302.946 84.4986 301.429 85.6887C299.749 86.987 298.178 88.0419 296.715 88.8534C295.306 89.6107 293.979 89.9894 292.732 89.9894C290.836 89.9894 289.481 89.3402 288.669 88.0419C287.856 86.6895 287.449 85.0666 287.449 83.1732C287.449 81.8208 287.666 80.3061 288.1 78.6291C288.533 76.898 289.102 75.167 289.806 73.4359C290.511 71.6507 291.296 69.8926 292.163 68.1615C293.084 66.4304 294.033 64.8345 295.008 63.3739C296.525 61.3724 298.205 59.479 300.047 57.6938C301.943 55.8545 303.894 54.2587 305.899 52.9063C307.904 51.4998 309.963 50.3908 312.076 49.5794C314.189 48.7679 316.248 48.3622 318.253 48.3622C319.878 48.3622 321.124 48.7679 321.991 49.5794C322.912 50.3367 323.373 51.4998 323.373 53.0686C323.373 53.8259 323.292 54.6915 323.129 55.6652L328.006 48.5245H338.409L329.062 60.8585C324.998 66.214 321.07 71.6507 317.277 77.1685C316.844 77.7636 316.356 78.4939 315.814 79.3594C315.273 80.1709 314.758 81.0364 314.27 81.9561C313.783 82.8216 313.349 83.6871 312.97 84.5527C312.645 85.3641 312.482 86.0944 312.482 86.7436C312.482 87.6632 313.051 88.123 314.189 88.123C315.218 88.123 316.302 87.8526 317.44 87.3116C318.632 86.7706 319.851 86.0133 321.097 85.0395C322.398 84.0658 323.698 82.9298 324.998 81.6315C326.353 80.3332 327.708 78.9267 329.062 77.412ZM300.535 84.4715C302.269 83.065 304.057 81.4151 305.899 79.5217C307.741 77.6284 309.556 75.5727 311.344 73.3547C312.861 71.6236 314.27 69.7573 315.571 67.7558C316.871 65.7542 318.036 63.7797 319.065 61.8322C319.716 60.588 320.339 59.2085 320.935 57.6938C321.531 56.1791 321.829 54.6374 321.829 53.0686C321.829 52.4194 321.666 51.7703 321.341 51.1211C321.016 50.472 320.447 50.1474 319.634 50.1474C318.442 50.1474 317.034 50.7695 315.408 52.0137C313.837 53.2579 312.211 54.7997 310.532 56.6389C308.852 58.4782 307.199 60.4527 305.574 62.5625C303.948 64.6723 302.512 66.5927 301.266 68.3238C299.857 70.2712 298.557 72.2187 297.365 74.1662C296.173 76.0596 295.143 77.8447 294.277 79.5217C293.41 81.1987 292.705 82.7134 292.163 84.0658C291.676 85.3641 291.432 86.419 291.432 87.2305C291.432 87.9878 291.865 88.3665 292.732 88.3665C293.708 88.3665 294.845 88.0419 296.146 87.3927C297.5 86.6895 298.963 85.7158 300.535 84.4715Z" fill="var(--fill-0, white)"/>
<path d="M336.696 82.0372C336.696 80.1979 337.021 78.2505 337.671 76.1948C338.321 74.1391 339.161 72.0564 340.191 69.9467C341.22 67.7828 342.358 65.673 343.604 63.6174C344.905 61.5076 346.178 59.5331 347.424 57.6938C345.04 60.3986 342.683 63.2387 340.353 66.214L338.728 68.2426L337.915 69.2975V69.2164C337.698 69.4868 337.4 69.8385 337.021 70.2712C336.696 70.704 336.425 71.0556 336.208 71.3261L335.152 70.1089L338.728 65.646C341.003 62.8871 343.225 60.2364 345.392 57.6938C347.559 55.0972 349.51 53.0956 351.244 51.6891C355.254 45.9549 359.182 40.7887 363.029 36.1905C366.876 31.5923 370.615 27.6703 374.245 24.4245C377.875 21.1787 381.397 18.6903 384.811 16.9592C388.224 15.2281 391.502 14.3626 394.645 14.3626C395.458 14.3626 396.325 14.4437 397.246 14.606C398.221 14.7142 399.115 14.9577 399.928 15.3363C400.74 15.6609 401.418 16.1748 401.96 16.8781C402.501 17.5272 402.772 18.4198 402.772 19.5558C402.772 21.1246 402.203 22.6393 401.066 24.0999C399.982 25.5605 398.654 26.94 397.083 28.2383C395.512 29.5366 393.859 30.7268 392.125 31.8087C390.446 32.8365 388.983 33.7021 387.736 34.4053C383.51 36.7856 379.203 39.1928 374.814 41.6272C370.479 44.0615 366.388 46.3877 362.541 48.6056L362.704 48.5245L359.209 53.6366C358.125 55.1513 356.933 56.8553 355.633 58.7487C354.332 60.588 353.032 62.5084 351.732 64.51C350.431 66.4574 349.158 68.432 347.912 70.4335C346.665 72.4351 345.555 74.3285 344.579 76.1136C343.658 77.8447 342.9 79.4676 342.304 80.9823C341.762 82.4429 341.491 83.633 341.491 84.5527C341.491 86.1215 341.816 87.1493 342.466 87.6362C343.116 88.1231 343.74 88.3665 344.336 88.3665C346.232 88.3665 348.318 87.6903 350.594 86.3379C352.924 84.9314 355.226 83.2544 357.502 81.3069C359.778 79.3053 361.918 77.2226 363.923 75.0588C365.928 72.8408 367.58 70.9204 368.881 69.2975L369.937 70.5147C368.583 72.1917 366.876 74.1391 364.817 76.3571C362.812 78.575 360.618 80.7118 358.234 82.7675C355.904 84.7691 353.493 86.4731 351 87.8796C348.562 89.2861 346.232 89.9894 344.01 89.9894C342.006 89.9894 340.272 89.3943 338.809 88.2042C337.4 86.96 336.696 84.9043 336.696 82.0372ZM387.086 33.1881C388.062 32.6472 389.335 31.9169 390.906 30.9972C392.532 30.0235 394.103 28.9145 395.62 27.6703C397.191 26.4261 398.519 25.1007 399.603 23.6942C400.74 22.2877 401.309 20.8812 401.309 19.4747C401.309 18.2846 400.74 17.419 399.603 16.8781C398.519 16.3371 397.408 16.0666 396.27 16.0666C393.67 16.0666 390.933 16.9863 388.062 18.8255C385.244 20.6648 382.426 23.0451 379.609 25.9663C376.846 28.8334 374.164 32.0521 371.563 35.6225C368.962 39.1387 366.578 42.6009 364.411 46.009L368.23 43.8181H368.149C371.183 42.087 374.299 40.3289 377.496 38.5437C380.693 36.7044 383.889 34.9192 387.086 33.1881Z" fill="var(--fill-0, white)"/>
</g>
<defs>
<filter id="filter0_i_0_4" x="0" y="0" width="406.645" height="131.676" filterUnits="userSpaceOnUse" color-interpolation-filters="sRGB">
<feFlood flood-opacity="0" result="BackgroundImageFix"/>
<feBlend mode="normal" in="SourceGraphic" in2="BackgroundImageFix" result="shape"/>
<feColorMatrix in="SourceAlpha" type="matrix" values="0 0 0 0 0 0 0 0 0 0 0 0 0 0 0 0 0 0 127 0" result="hardAlpha"/>
<feOffset dx="3.87281" dy="3.87281"/>
<feGaussianBlur stdDeviation="7.74562"/>
<feComposite in2="hardAlpha" operator="arithmetic" k2="-1" k3="1"/>
<feColorMatrix type="matrix" values="0 0 0 0 0 0 0 0 0 0 0 0 0 0 0 0 0 0 0.25 0"/>
<feBlend mode="normal" in2="shape" result="effect1_innerShadow_0_4"/>
</filter>
</defs>
</svg>
